<?xml version="1.0" encoding="UTF-8" standalone="no"?>
<svg
   height="40"
   viewBox="0 96 800 800"
   width="40"
   version="1.1"
   id="svg12"
   xmlns="http://www.w3.org/2000/svg"
   xmlns:svg="http://www.w3.org/2000/svg">
  <defs
     id="defs16" />
  <path
     d="M 142,721 Q 205,677 267,653.5 329,630 400,630 471,630 533.5,653.5 596,677 659,721 703,667 721.5,612 740,557 740,496 740,351 642.5,253.5 545,156 400,156 255,156 157.5,253.5 60,351 60,496 q 0,61 19,116 19,55 63,109 z M 399.814,526 Q 342,526 302.5,486.314 263,446.628 263,388.814 263,331 302.686,291.5 342.372,252 400.186,252 458,252 497.5,291.686 537,331.372 537,389.186 537,447 497.314,486.5 457.628,526 399.814,526 Z m 0.654,370 Q 318,896 245,864.5 172,833 117.5,778.5 63,724 31.5,651.234 0,578.468 0,495.734 0,413 31.5,340.5 63,268 117.5,213.5 172,159 244.766,127.5 317.532,96 400.266,96 483,96 555.5,127.5 q 72.5,31.5 127,86 54.5,54.5 86,127.032 31.5,72.532 31.5,155 Q 800,578 768.5,651 737,724 682.5,778.5 628,833 555.468,864.5 482.936,896 400.468,896 Z M 400,836 q 55,0 107.5,-16 Q 560,804 611,764 560,728 507,709 454,690 400,690 q -54,0 -107,19 -53,19 -104,55 51,40 103.5,56 52.5,16 107.5,16 z m 0,-370 q 34,0 55.5,-21.5 Q 477,423 477,389 477,355 455.5,333.5 434,312 400,312 366,312 344.5,333.5 323,355 323,389 q 0,34 21.5,55.5 Q 366,466 400,466 Z m 0,-77 z m 0,374 z"
     id="path10" />
  <path
     style="fill:#ffffff;stroke-width:1.69323"
     d="M 372.57142,894.41682 C 276.27724,885.5792 192.7118,848.37374 125.50254,784.4154 13.081504,677.4322 -27.279602,516.75728 21.46571,370.2516 c 14.16421,-42.571 40.2049,-89.3625 70.57031,-126.80498 56.14294,-69.22782 141.96916,-121.0007 229.94094,-138.70707 131.3741,-26.44209 263.82084,14.22538 359.67486,110.43736 66.01246,66.25897 105.01336,147.31107 115.32404,239.66769 2.69442,24.1348 1.15,80.56778 -2.85266,104.24112 -6.91142,40.87618 -17.52268,73.38336 -36.70916,112.45714 -57.41016,116.91728 -171.89742,200.78186 -299.50258,219.39258 -19.7338,2.8781 -69.70256,4.91654 -85.34004,3.48138 z m 88.68572,-62.80376 c 52.7775,-9.1579 92.45926,-25.53148 135.3334,-55.84164 8.53556,-6.03428 15.51632,-11.38284 15.51276,-11.8857 -0.0128,-1.8244 -33.37428,-22.34896 -53.4636,-32.8918 C 502.98124,701.78442 457.6229,690.0888 400,690.0888 c -57.6229,0 -102.98124,11.69562 -158.6397,40.90512 -20.08932,10.54284 -53.45068,31.06738 -53.4636,32.8918 -0.0128,1.8006 31.3516,23.03874 47.96766,32.48108 36.4409,20.70808 81.70602,34.06916 133.96422,39.5428 17.69922,1.8538 70.20278,-0.6134 91.42856,-4.29654 z M 165.20548,706.87284 c 62.14226,-39.71808 120.9314,-63.28982 179.93738,-72.14666 25.55728,-3.83616 79.0263,-4.28788 104.22856,-0.8806 64.54778,8.7268 125.2514,33.03586 192.9143,77.25348 l 16.45714,10.75472 6.1316,-6.86978 c 18.07092,-20.24646 47.02478,-71.59354 56.84508,-100.80964 4.9037,-14.58884 11.86056,-42.59138 15.04894,-60.57442 3.30108,-18.61876 3.30426,-98.38232 0.005,-117.02858 -4.05298,-22.90362 -12.55156,-53.7435 -20.13054,-73.0502 C 683.37826,278.78472 607.612,205.54661 521.9287,175.30485 481.6731,161.09672 450.39164,156.11061 400.9138,156.01571 c -38.4695,-0.0738 -56.60014,1.79864 -87.77142,9.06456 C 191.547,193.42372 92.55463,294.7623 67.25261,416.79784 61.6449,443.84466 59.88523,462.6261 59.88523,495.432 c 0,82.67424 21.84605,147.74502 71.86371,214.05372 5.12072,6.78856 9.47828,12.34286 9.68348,12.34286 0.2052,0 10.90286,-6.73008 23.77258,-14.95574 z"
     id="path260" />
  <path
     style="fill:#ffffff;stroke-width:1.69323"
     d="m 367.08572,521.5067 c -6.53714,-1.4 -19.70286,-6.4073 -29.25714,-11.1274 C 323.24926,503.17668 317.78694,499.12712 303.8442,485.18436 289.88882,471.22898 285.8603,465.79254 278.66108,451.2 268.18342,429.96222 264.75892,414.42816 264.71746,387.94964 264.65546,348.6705 276.21414,320.6679 303.92674,292.9553 331.8969,264.98514 359.49118,253.71428 400,253.71428 c 40.46342,0 68.02132,11.24634 96.1558,39.24102 14.00622,13.93664 17.95768,19.25616 25.18314,33.90184 10.47764,21.23778 13.90212,36.77184 13.9436,63.25036 0.062,39.2337 -11.47234,67.20144 -39.20928,95.07686 -13.93662,14.00622 -19.25614,17.9577 -33.90184,25.18314 -9.55428,4.7136 -23.13142,9.77206 -30.17142,11.24102 -15.93778,3.32556 -49.15356,3.27346 -64.91428,-0.102 z m 59.42856,-58.79548 c 35.63392,-10.88686 55.35958,-45.10996 50.10788,-86.9348 -2.11852,-16.87186 -8.87644,-30.75848 -20.74398,-42.62602 -11.6462,-11.64622 -25.63366,-18.49838 -42.62104,-20.87918 -27.28914,-3.82462 -51.84858,3.59244 -69.13532,20.87918 -17.1256,17.1256 -24.29928,40.81584 -20.79952,68.68804 6.05016,48.18362 53.3665,76.09544 103.19198,60.87278 z"
     id="path262" />
</svg>
